<svg id="Angel-Heart--Streamline-Atlas" xmlns="http://www.w3.org/2000/svg" viewBox="-0.5 -0.5 16 16" height="16" width="16">
  <desc>
    Angel Heart Streamline Icon: https://streamlinehq.com
  </desc>
  <defs></defs>
  <path d="M9.125 6.30625a2.09375 2.09375 0 0 0 -1.625 0.71875 2.09375 2.09375 0 0 0 -1.625 -0.71875 1.8062500000000001 1.8062500000000001 0 0 0 -1.9562499999999998 1.6125c0 2.4125 3.5812500000000003 3.75 3.5812500000000003 3.75s3.5812500000000003 -1.34375 3.5812500000000003 -3.75a1.8062500000000001 1.8062500000000001 0 0 0 -1.9562499999999998 -1.6125Z" fill="none" stroke="#000000" stroke-miterlimit="10" stroke-width="1"></path>
  <path d="M10.549999999999999 6.81875a1.59375 1.59375 0 0 0 0.525 0.08750000000000001 2.9875000000000003 2.9875000000000003 0 0 0 2.9875000000000003 -2.9875000000000003v-0.59375h-2.9812499999999997a1.78125 1.78125 0 0 0 -1.2125 3.125" fill="none" stroke="#000000" stroke-miterlimit="10" stroke-width="1"></path>
  <path d="M4.45 6.81875a1.59375 1.59375 0 0 1 -0.525 0.08750000000000001A2.9875000000000003 2.9875000000000003 0 0 1 0.9375 3.9187499999999997v-0.59375h2.9812499999999997a1.78125 1.78125 0 0 1 1.2125 3.125" fill="none" stroke="#000000" stroke-miterlimit="10" stroke-width="1"></path>
</svg>