<svg xmlns="http://www.w3.org/2000/svg" fill="none" viewBox="0 0 24 24" id="Settings--Streamline-Rounded-Material" height="24" width="24">
  <desc>
    Settings Streamline Icon: https://streamlinehq.com
  </desc>
  <path fill="#000000" d="M10.525 22c-0.2333 0 -0.44165 -0.075 -0.625 -0.225 -0.1833 -0.15 -0.29165 -0.34165 -0.325 -0.575l-0.375 -2.35c-0.31665 -0.11665 -0.65 -0.275 -1 -0.475 -0.35 -0.2 -0.6583 -0.40835 -0.925 -0.625l-2.15 1c-0.233315 0.1 -0.46665 0.1125 -0.69998 0.0375 -0.233335 -0.075 -0.41667 -0.22085 -0.55 -0.4375l-1.45 -2.6c-0.133335 -0.21665 -0.170835 -0.44165 -0.1125 -0.675 0.05833 -0.23335 0.1875 -0.425 0.3875 -0.575l2 -1.475c-0.033335 -0.15 -0.05417 -0.32085 -0.0625 -0.5125 -0.008335 -0.19165 -0.0125 -0.3625 -0.0125 -0.5125 0 -0.15 0.004165 -0.32085 0.0125 -0.5125 0.00833 -0.19165 0.029165 -0.3625 0.0625 -0.5125l-2 -1.475c-0.2 -0.15 -0.32917 -0.34165 -0.3875 -0.575 -0.058335 -0.23335 -0.020835 -0.45835 0.1125 -0.675l1.45 -2.6c0.13333 -0.21665 0.316665 -0.3625 0.55 -0.4375 0.23333 -0.075 0.466665 -0.0625 0.69998 0.0375l2.15 1c0.2667 -0.21665 0.575 -0.425 0.925 -0.625 0.35 -0.2 0.68335 -0.35 1 -0.45l0.375 -2.375c0.03335 -0.233335 0.1417 -0.425 0.325 -0.575 0.18335 -0.15 0.3917 -0.225 0.625 -0.225h2.95c0.23335 0 0.4417 0.075 0.625 0.225 0.18335 0.15 0.2917 0.341665 0.325 0.575l0.375 2.35c0.3167 0.11665 0.6542 0.27085 1.0125 0.4625 0.35835 0.19165 0.6625 0.40415 0.9125 0.6375l2.15 -1c0.23335 -0.1 0.4625 -0.1125 0.6875 -0.0375 0.225 0.075 0.4042 0.22085 0.5375 0.4375l1.475 2.6c0.13335 0.21665 0.17085 0.44585 0.1125 0.6875 -0.0583 0.24165 -0.1875 0.42915 -0.3875 0.5625l-2 1.425c0.03335 0.16665 0.0542 0.34585 0.0625 0.5375 0.00835 0.19165 0.0125 0.37085 0.0125 0.5375 0 0.16665 -0.00415 0.34165 -0.0125 0.525 -0.0083 0.18335 -0.02915 0.35835 -0.0625 0.525l2 1.45c0.2 0.13335 0.3292 0.32085 0.3875 0.5625 0.05835 0.24165 0.02085 0.47085 -0.1125 0.6875l-1.45 2.6c-0.1333 0.21665 -0.31665 0.3625 -0.55 0.4375 -0.2333 0.075 -0.46665 0.0625 -0.7 -0.0375l-2.15 -1c-0.26665 0.21665 -0.5708 0.42915 -0.9125 0.6375 -0.34165 0.20835 -0.67915 0.3625 -1.0125 0.4625l-0.375 2.35c-0.0333 0.23335 -0.14165 0.425 -0.325 0.575 -0.1833 0.15 -0.39165 0.225 -0.625 0.225h-2.95Zm0.375 -1.5h2.2l0.35 -2.8c0.55 -0.13335 1.07085 -0.34165 1.5625 -0.625 0.4917 -0.28335 0.9375 -0.625 1.3375 -1.025l2.65 1.15 1 -1.8 -2.35 -1.725c0.0667 -0.28335 0.12085 -0.5625 0.1625 -0.8375 0.0417 -0.275 0.0625 -0.55415 0.0625 -0.8375s-0.01665 -0.5625 -0.05 -0.8375c-0.0333 -0.275 -0.09165 -0.55415 -0.175 -0.8375L20 8.6l-1 -1.8 -2.65 1.15c-0.3833 -0.43335 -0.81665 -0.79585 -1.3 -1.0875 -0.4833 -0.29165 -1.01665 -0.47915 -1.6 -0.5625L13.1 3.5h-2.2l-0.35 2.8c-0.56665 0.11665 -1.0958 0.31665 -1.5875 0.6 -0.49165 0.28335 -0.92915 0.63335 -1.3125 1.05L5 6.8l-0.99998 1.8L6.35 10.325c-0.06665 0.28335 -0.1208 0.5625 -0.1625 0.8375 -0.04165 0.275 -0.0625 0.55415 -0.0625 0.8375s0.02085 0.5625 0.0625 0.8375c0.0417 0.275 0.09585 0.55415 0.1625 0.8375L4.00002 15.4 5 17.2l2.65 -1.15c0.4 0.4 0.84585 0.74165 1.3375 1.025 0.4917 0.28335 1.0125 0.49165 1.5625 0.625l0.35 2.8ZM12 15.25c0.9 0 1.6667 -0.31665 2.3 -0.95 0.63335 -0.63335 0.95 -1.4 0.95 -2.3 0 -0.9 -0.31665 -1.66665 -0.95 -2.3 -0.6333 -0.63335 -1.4 -0.95 -2.3 -0.95 -0.9 0 -1.66665 0.31665 -2.3 0.95 -0.6333 0.63335 -0.95 1.4 -0.95 2.3 0 0.9 0.3167 1.66665 0.95 2.3 0.63335 0.63335 1.4 0.95 2.3 0.95Z" stroke-width="0.5"></path>
</svg>