<svg viewBox="0 0 16 16" fill="none" xmlns="http://www.w3.org/2000/svg" id="Lock--Streamline-Unicons" height="16" width="16">
  <desc>
    Lock Streamline Icon: https://streamlinehq.com
  </desc>
  <path d="M11.919999999999998 5.648V4.08c0 -1.0396666666666667 -0.41300000000000003 -2.0367333333333333 -1.1481333333333332 -2.7718666666666665S9.039666666666665 0.15999999999999998 8 0.15999999999999998c-1.0396666666666667 0 -2.0367333333333333 0.41300000000000003 -2.7718666666666665 1.1481333333333332S4.08 3.0403333333333333 4.08 4.08v1.5679999999999998c-0.6237999999999999 0 -1.222 0.24779999999999996 -1.6631333333333331 0.6888666666666667C1.9757999999999998 6.778 1.728 7.376266666666666 1.728 8v5.4879999999999995c0 0.6237333333333333 0.24779999999999996 1.222 0.6888666666666667 1.6631333333333331 0.44113333333333327 0.4410666666666666 1.0393333333333332 0.6888666666666667 1.6631333333333331 0.6888666666666667h7.84c0.6237333333333333 0 1.222 -0.24779999999999996 1.6631333333333331 -0.6888666666666667 0.4410666666666666 -0.44113333333333327 0.6888666666666667 -1.0393999999999999 0.6888666666666667 -1.6631333333333331V8c0 -0.6237333333333333 -0.24779999999999996 -1.222 -0.6888666666666667 -1.6631333333333331 -0.44113333333333327 -0.4410666666666666 -1.0393999999999999 -0.6888666666666667 -1.6631333333333331 -0.6888666666666667ZM5.648 4.08c0 -0.6237999999999999 0.24779999999999996 -1.222 0.6888666666666667 -1.6631333333333331C6.778 1.9757999999999998 7.376266666666666 1.728 8 1.728s1.222 0.24779999999999996 1.6631333333333331 0.6888666666666667c0.4410666666666666 0.44113333333333327 0.6888666666666667 1.0393333333333332 0.6888666666666667 1.6631333333333331v1.5679999999999998H5.648V4.08Zm7.055999999999999 9.408c0 0.20793333333333333 -0.08259999999999999 0.4074 -0.22959999999999997 0.5544s-0.3464666666666667 0.22959999999999997 -0.5544 0.22959999999999997H4.08c-0.20793333333333333 0 -0.4073333333333333 -0.08259999999999999 -0.5544 -0.22959999999999997 -0.147 -0.147 -0.22959999999999997 -0.3464666666666667 -0.22959999999999997 -0.5544V8c0 -0.20793333333333333 0.08259999999999999 -0.4073333333333333 0.22959999999999997 -0.5543333333333333 0.14706666666666665 -0.147 0.3464666666666667 -0.22966666666666663 0.5544 -0.22966666666666663h7.84c0.20793333333333333 0 0.4074 0.08266666666666667 0.5544 0.22966666666666663s0.22959999999999997 0.34639999999999993 0.22959999999999997 0.5543333333333333v5.4879999999999995Z" fill="#000000" stroke-width="0.6667"></path>
</svg>