<svg viewBox="0 0 16 16" fill="none" xmlns="http://www.w3.org/2000/svg" id="Person--Streamline-Radix" height="16" width="16">
  <desc>
    Person Streamline Icon: https://streamlinehq.com
  </desc>
  <path fill-rule="evenodd" clip-rule="evenodd" d="M8 0.9333333333333333C5.864501333333333 0.9333333333333333 4.133333333333333 2.6645013333333334 4.133333333333333 4.8c0 1.763072 1.1799893333333331 3.2505386666666665 2.793312 3.715744 -1.2736319999999999 0.15519999999999998 -2.3660373333333333 0.6056853333333333 -3.188970666666667 1.416704 -1.0473706666666667 1.0322453333333332 -1.5776533333333334 2.5688853333333332 -1.5776533333333334 4.574112 0 0.2798933333333333 0.226848 0.5066666666666666 0.5066666666666666 0.5066666666666666 0.2798293333333334 0 0.5066666666666666 -0.22677333333333335 0.5066666666666666 -0.5066666666666666 0 -1.8346666666666667 0.48302933333333337 -3.0712533333333334 1.2756159999999999 -3.8523733333333334 0.7940799999999999 -0.7825813333333334 1.979552 -1.1875306666666667 3.550976 -1.1875306666666667 1.5714346666666665 0 2.75696 0.40494933333333333 3.551093333333333 1.1875413333333333 0.7925333333333333 0.7811093333333333 1.2756266666666667 2.017696 1.2756266666666667 3.8523626666666666 0 0.2798933333333333 0.22677333333333335 0.5066666666666666 0.5066666666666666 0.5066666666666666 0.27978666666666663 0.00010666666666666667 0.5066666666666666 -0.22677333333333335 0.5066666666666666 -0.50656 0 -2.005333333333333 -0.5303466666666666 -3.5419733333333334 -1.5777066666666668 -4.574229333333333 -0.8229333333333333 -0.8109973333333333 -1.91536 -1.2614720000000001 -3.1889600000000002 -1.4166826666666668C10.686613333333334 8.050559999999999 11.866666666666667 6.563082666666666 11.866666666666667 4.8 11.866666666666667 2.6645013333333334 10.135498666666667 0.9333333333333333 8 0.9333333333333333ZM5.1466666666666665 4.8c0 -1.5758506666666667 1.2774826666666668 -2.853333333333333 2.853333333333333 -2.853333333333333 1.5758506666666667 0 2.853333333333333 1.2774826666666668 2.853333333333333 2.853333333333333 0 1.5758506666666667 -1.2774826666666668 2.853333333333333 -2.853333333333333 2.853333333333333 -1.5758506666666667 0 -2.853333333333333 -1.2774826666666668 -2.853333333333333 -2.853333333333333Z" fill="#000000" stroke-width="1.0667"></path>
</svg>