<?xml version="1.0" encoding="iso-8859-1"?>
<!-- Uploaded to: SVG Repo, www.svgrepo.com, Generator: SVG Repo Mixer Tools -->
<svg height="800px" width="800px" version="1.1" id="Layer_1" xmlns="http://www.w3.org/2000/svg" xmlns:xlink="http://www.w3.org/1999/xlink" 
	 viewBox="0 0 511.982 511.982" xml:space="preserve">
<path style="fill:#F6BB42;" d="M394.641,209.165c-5.016-23.328-18.107-46.374-38.92-68.529
	c-22.172-23.577-34.67-51.154-37.154-81.935c-1.875-23.265,2.969-39.78,3.016-39.921L327.33,0l-18.889,5.406
	C223.6,29.639,182.351,73.247,176.805,145.635c-8.125-3.891-15.859-7.109-17.25-7.688l-9.687-4.016l-4.188,9.625
	c-26.968,62.107-11.843,107.559,5.609,134.776c13.25,20.655,32.592,38.187,55.936,50.701c21.515,11.516,45.483,18.109,67.45,18.562
	c1.031,0.031,2.062,0.031,3.094,0.031c37.266,0,90.201-29.421,110.762-76.967C397.095,250.85,399.141,230.164,394.641,209.165z"/>
<path style="fill:#FFCE54;" d="M420.22,293.145c-2.688-34.279-34.922-52.326-61.498-61.435
	c-53.264-18.25-77.826-85.435-78.076-86.106l-5.109-14.391l-11.748,9.75c-48.14,39.937-63.905,82.638-49.937,136.823l-10.656-0.078
	l0.891,11.578c2.562,33.358,15.578,60.497,37.639,78.497c18.531,15.094,43.201,23.405,69.467,23.405l0,0
	c18.107,0,36.139-4.046,50.764-11.39c0.688-0.344,1.375-0.703,2.062-1.062c14.141-7.469,28.264-19.875,38.732-33.999
	C411.626,332.769,421.859,314.098,420.22,293.145z"/>
<path style="fill:#ED5564;" d="M327.128,198.977c-27.873,0-53.061,11.452-71.137,29.905c-18.077-18.453-43.264-29.905-71.138-29.905
	c-54.998,0-99.59,44.592-99.59,99.59C85.262,412.391,255.99,511.982,255.99,511.982S426.72,412.391,426.72,298.567
	C426.72,243.569,382.128,198.977,327.128,198.977z"/>
<g style="opacity:0.2;">
	<path style="fill:#FFFFFF;" d="M327.128,198.977c-3.607,0-7.17,0.188-10.67,0.562c49.982,5.328,88.918,47.623,88.918,99.027
		c0,96.497-122.699,182.76-160.057,206.79c6.703,4.312,10.671,6.625,10.671,6.625s170.73-99.59,170.73-213.414
		C426.72,243.569,382.128,198.977,327.128,198.977z"/>
</g>
</svg>