<svg xmlns="http://www.w3.org/2000/svg" viewBox="0 0 16 16" fill="#000000" id="Bookmark--Streamline-Phosphor" height="16" width="16">
  <desc>
    Bookmark Streamline Icon: https://streamlinehq.com
  </desc>
  <path d="M12.3904875 0.16H3.6095125c-0.6928 0 -1.254425 0.561625 -1.254425 1.254425v13.798675c0.00024375 0.482825 0.52306875 0.7843375 0.9410875 0.5427125 0.00625 -0.0036125 0.01243125 -0.007325 0.01855 -0.01115L8 12.8163625l4.6860625 2.9283c0.4098125 0.25529375 0.9423125 -0.02878125 0.9585 -0.5113375 0.000225 -0.0067375 0.00034375 -0.01348125 0.00035 -0.020225V1.414425c0 -0.6928 -0.561625 -1.254425 -1.254425 -1.254425Zm0 1.254425v8.9040625l-4.05885 -2.5362875c-0.2033875 -0.12711875 -0.46145625 -0.12711875 -0.66484375 0l-4.05728125 2.53550625V1.414425Zm-4.05885 10.13105c-0.2033875 -0.12711875 -0.46145625 -0.12711875 -0.66484375 0l-4.05728125 2.5362875v-2.28461875L8 9.0530875l4.3904875 2.74405625v2.28461875Z" stroke-width="0.0625"></path>
</svg>